<svg width="91" height="48" viewBox="0 0 91 48" fill="none" xmlns="http://www.w3.org/2000/svg">
<path d="M6.57 16.8L7.98 20.73C7.17 20.88 6.39 20.97 5.67 20.97C4.47 20.97 3.36 20.7 2.31 19.77C1.23 18.84 1.02 17.31 1.02 15.81V6.6H0.6V6.33C5.04 5.22 6.36 1.53 6.48 1.11V6.33H7.86V6.6H6.48V13.47C6.48 14.1 6.45 14.58 5.85 15.3C5.4 15.87 4.17 17.07 3.33 17.82C2.88 18.24 1.98 19.08 2.67 19.71C2.82 19.83 3.03 19.92 3.33 19.92C4.5 19.92 6.57 18.84 6.57 16.8ZM23.921 12.06V21H18.461V9.87C18.461 8.22 17.801 7.35 16.661 7.35C15.671 7.35 15.251 8.04 14.651 8.64V21H9.19102V2.52C11.291 2.13 13.121 1.29 14.651 -1.43051e-06V8.25C15.071 7.77 16.361 6.33 18.581 6.33C21.521 6.33 23.921 8.73 23.921 12.06ZM37.2548 16.89C37.2848 17.04 37.2848 17.19 37.2848 17.34C37.2848 19.74 34.6448 21.21 32.2448 21.21C28.4348 21.21 25.1648 17.52 25.1648 13.47C25.1648 9.54 28.2548 6.33 32.2748 6.33C34.4948 6.33 36.4748 7.32 36.4748 9.69C36.4748 11.97 34.6748 15.15 31.7348 15.54C33.2048 16.92 34.6148 17.28 35.6648 17.28C36.4448 17.28 37.0148 17.07 37.2548 16.89ZM30.4448 6.93C29.0648 6.93 28.6448 8.22 28.6448 9.57C28.6448 11.4 29.8448 13.47 31.1348 14.91C32.0648 13.02 32.4548 11.28 32.4548 9.93C32.4548 8.1 31.7348 6.93 30.4448 6.93ZM56.3142 18.57V8.82C56.3142 7.89 55.5342 6.9 54.5442 6.9C53.2242 6.9 52.0842 10.23 52.0842 14.04C52.0842 17.55 53.0142 20.52 54.4842 20.52C55.5342 20.52 56.3142 19.05 56.3142 18.57ZM61.7742 -1.43051e-06V21H56.3142V19.44C55.8642 20.22 55.2042 21 53.4042 21C50.0142 21 46.6242 18.27 46.6242 13.65C46.6242 9.6 48.9042 6.33 53.1342 6.33C54.8442 6.33 55.5642 6.87 56.3142 7.59V2.52C58.4142 2.13 60.2142 1.29 61.7742 -1.43051e-06ZM71.6419 6.33C75.0319 6.33 78.4219 9.06 78.4219 13.68C78.4219 17.73 76.1419 21 71.9119 21C70.2019 21 69.4819 20.46 68.7319 19.74V27.33C67.2019 26.04 65.3719 25.2 63.2719 24.81V6.33H68.7319V7.89C69.1819 7.11 69.8419 6.33 71.6419 6.33ZM70.5019 20.43C71.8219 20.43 72.9619 17.1 72.9619 13.29C72.9619 9.78 72.0019 6.81 70.5319 6.81C69.5419 6.81 68.7319 8.22 68.7319 8.76V18.51C68.7319 19.44 69.5119 20.43 70.5019 20.43ZM79.6266 14.97C80.7666 16.92 86.7366 19.8 88.8366 19.8C89.4066 19.8 89.4966 19.44 89.4966 19.11C89.4966 17.76 85.3866 16.68 84.3366 16.32C82.1166 15.51 79.6566 13.74 79.6566 11.01C79.6566 5.64 84.4866 5.73 90.9366 6.66L89.2566 11.4C87.1866 9.03 84.3366 7.77 83.2266 7.5C82.1166 7.23 81.5766 7.23 81.2766 7.53C80.4966 8.28 82.7766 9.66 84.7566 10.53C87.6666 11.82 90.7866 13.41 90.7866 16.41C90.7866 19.68 88.6566 21.15 85.5366 21.15C83.8866 21.15 81.9066 20.76 79.6266 19.98V14.97ZM8.97 26.33C12.36 26.33 15.75 29.06 15.75 33.68C15.75 37.73 13.47 41 9.24 41C7.53 41 6.81 40.46 6.06 39.74V47.33C4.53 46.04 2.7 45.2 0.6 44.81V26.33H6.06V27.89C6.51 27.11 7.17 26.33 8.97 26.33ZM7.83 40.43C9.15 40.43 10.29 37.1 10.29 33.29C10.29 29.78 9.33 26.81 7.86 26.81C6.87 26.81 6.06 28.22 6.06 28.76V38.51C6.06 39.44 6.84 40.43 7.83 40.43ZM27.8077 26.33L26.1277 31.1C25.8277 29.42 23.4277 29.12 22.7077 30.5V41H17.2477V28.85C19.3477 28.46 21.1777 27.62 22.7077 26.33V30.02C23.2777 27.53 25.3477 26.33 27.8077 26.33ZM39.3056 36.89C39.3356 37.04 39.3356 37.19 39.3356 37.34C39.3356 39.74 36.6956 41.21 34.2956 41.21C30.4856 41.21 27.2156 37.52 27.2156 33.47C27.2156 29.54 30.3056 26.33 34.3256 26.33C36.5456 26.33 38.5256 27.32 38.5256 29.69C38.5256 31.97 36.7256 35.15 33.7856 35.54C35.2556 36.92 36.6656 37.28 37.7156 37.28C38.4956 37.28 39.0656 37.07 39.3056 36.89ZM32.4956 26.93C31.1156 26.93 30.6956 28.22 30.6956 29.57C30.6956 31.4 31.8956 33.47 33.1856 34.91C34.1156 33.02 34.5056 31.28 34.5056 29.93C34.5056 28.1 33.7856 26.93 32.4956 26.93ZM40.582 34.97C41.722 36.92 47.692 39.8 49.792 39.8C50.362 39.8 50.452 39.44 50.452 39.11C50.452 37.76 46.342 36.68 45.292 36.32C43.072 35.51 40.612 33.74 40.612 31.01C40.612 25.64 45.442 25.73 51.892 26.66L50.212 31.4C48.142 29.03 45.292 27.77 44.182 27.5C43.072 27.23 42.532 27.23 42.232 27.53C41.452 28.28 43.732 29.66 45.712 30.53C48.622 31.82 51.742 33.41 51.742 36.41C51.742 39.68 49.612 41.15 46.492 41.15C44.842 41.15 42.862 40.76 40.582 39.98V34.97ZM53.0988 34.97C54.2388 36.92 60.2088 39.8 62.3088 39.8C62.8788 39.8 62.9688 39.44 62.9688 39.11C62.9688 37.76 58.8588 36.68 57.8088 36.32C55.5888 35.51 53.1288 33.74 53.1288 31.01C53.1288 25.64 57.9588 25.73 64.4088 26.66L62.7288 31.4C60.6588 29.03 57.8088 27.77 56.6988 27.5C55.5888 27.23 55.0488 27.23 54.7488 27.53C53.9688 28.28 56.2488 29.66 58.2288 30.53C61.1388 31.82 64.2588 33.41 64.2588 36.41C64.2588 39.68 62.1288 41.15 59.0088 41.15C57.3588 41.15 55.3788 40.76 53.0988 39.98V34.97Z" fill="#1C1818"/>
</svg>
